<?xml version="1.0" encoding="utf-8"?>
<!-- Generator: Adobe Illustrator 19.0.0, SVG Export Plug-In . SVG Version: 6.00 Build 0)  -->
<svg version="1.1" id="Layer_1" xmlns="http://www.w3.org/2000/svg" xmlns:xlink="http://www.w3.org/1999/xlink" x="0px" y="0px"
	 viewBox="0 0 1534 284.2" style="enable-background:new 0 0 1534 284.2;" xml:space="preserve">
<style type="text/css">
	<!-- .st0{fill:#95B6DD;} -->
	.st0{fill:#5180ba;}
	<!-- .st0{fill:#85a5c5;} -->
	.st1{fill:#0560D0;}
	.st2{fill:#3688ED;}
	.st3{fill:#0513D0;}
</style>
<path class="st0" d="M418.2,65c-74.6,0-116.5,36.7-116.5,109.4s41.9,109.8,116.5,109.8c74.6,0,116.5-37.1,116.5-109.8
	S492.9,65,418.2,65z M418.2,240.3c-33.6,0-49.8-19.4-49.8-66c0-46.6,16.2-65.6,49.8-65.6c33.6,0,49.8,18.9,49.8,65.6
	C468,221,451.8,240.3,418.2,240.3z M625.1,127.4c0-11,11.1-18.5,38.3-18.5c17,0,31.6,4.7,38.3,13c5.1,6.3,12.3,10.2,22.1,10.2h28.8
	c6.7,0,11.9-5.1,11.9-11.8c0-41.1-41.1-55.3-105.8-55.3c-55.7,0-100.3,17.8-100.3,62.4c0,79.8,145.7,61.6,145.7,94.4
	c0,11.1-11.1,18.6-44.2,18.6c-17,0-31.6-4.8-38.3-13.1c-5.1-6.3-12.3-10.3-22.1-10.3h-28.8c-6.7,0-11.9,5.2-11.9,11.9
	c0,41.1,41.1,55.3,105.8,55.3c61.6,0,106.2-17.8,106.2-62.4C770.8,141.2,625.1,160.2,625.1,127.4z M940.6,236h-7.1
	c-8.7,0-16.3,2.4-26.5,2.4c-20.2,0-34-14.2-34-41.1V127h53.8c6.7,0,12.2-5.5,12.2-12.3V91.9c0-6.7-5.5-11.9-12.2-11.9H873V15.6
	C873,8.9,868,4,861.3,4h-43C811.5,4,806,8.9,806,15.6v181.7c0,59.2,27.8,86.9,83.1,86.9c17.8,0,39.3-1.6,51.2-3.9
	c6.7-1.2,11.7-5.9,11.7-11.8v-20.5C952,241.1,947.4,236,940.6,236z M1039.7,74h-43C990,74,985,78.8,985,85.5v182.9
	c0,6.7,5,11.6,11.7,11.6h43c6.7,0,12.3-4.9,12.3-11.6V85.5C1052,78.8,1046.5,74,1039.7,74z M1030.3,0h-24.1
	C992.4,0,984,8.1,984,21.9v6.7c0,13.8,8.4,22.3,22.2,22.3h24.1c13.8,0,21.7-8.5,21.7-22.3v-6.7C1052,8.1,1044.1,0,1030.3,0z
	 M1275.1,234h-108.6l104.9-106.4c8.3-8.3,13.6-15.2,13.6-28.2V80.8c0-6.7-4.8-11.8-11.5-11.8h-175.7c-6.7,0-11.8,5.1-11.8,11.8v22.9
	c0,6.7,5.1,12.3,11.8,12.3h103.5l-101.5,106c-8.3,8.3-13.8,14.8-13.8,27.8v18.6c0,6.7,5.1,11.6,11.8,11.6h177.3
	c6.7,0,11.9-4.9,11.9-11.6v-22.9C1287,238.7,1281.8,234,1275.1,234z M1421.3,65c-69.9,0-112.6,38.7-112.6,109.8
	c0,71.5,42.2,109.4,112.5,109.4c63.2,0,105.4-14.2,105.4-55.3c0-6.7-5.2-11.9-11.9-11.9H1486c-9.9,0-17,4-22.1,10.3
	c-6.7,8.3-21.3,13.1-37.9,13.1c-32.4,0-46.6-13.4-49.4-45.4h145.3c6.7,0,12.1-5.2,12.1-11.9v-11C1534,102.5,1491.6,65,1421.3,65z
	 M1376.2,154c1.6-29,16.6-45.4,45-45.4c29.2,0,43.4,16.4,44.6,45.4H1376.2z"/>
<path class="st1" d="M73,58.3V3H18.2C8.3,3,0,11.7,0,21.9V58h73V58.3z"/>
<path class="st2" d="M73,164.4V65v-3H0v200.1c0,9.9,8.7,17.9,18.6,17.9h36.3c10.3,0,18.1-8.1,18.1-17.9v-43.8l0,0V164.4L73,164.4z"
	/>
<path class="st3" d="M165.5,3H78v55h65.4c37.9,0,66,8,66,53c0,45-28,53-66,53H78v54h87.5C239,218,282,184.7,282,110.5
	C282,36.3,239,3,165.5,3z"/>
</svg>
