<?xml version="1.0" encoding="utf-8"?>
<!-- Generator: Adobe Illustrator 19.0.0, SVG Export Plug-In . SVG Version: 6.00 Build 0)  -->
<svg version="1.1" id="Layer_1" xmlns="http://www.w3.org/2000/svg" xmlns:xlink="http://www.w3.org/1999/xlink" x="0px" y="0px"
	 viewBox="0 0 282 277" style="enable-background:new 0 0 282 277;" xml:space="preserve">
<style type="text/css">
	.st0{fill:#0560D0;}
	.st1{fill:#3688ED;}
	.st2{fill:#0513D0;}
</style>
<path class="st0" d="M73,55.3V0H18.2C8.3,0,0,8.7,0,18.9V55h73V55.3z"/>
<path class="st1" d="M73,161.4V62v-3H0v200.1c0,9.9,8.7,17.9,18.6,17.9h36.3c10.3,0,18.1-8.1,18.1-17.9v-43.8l0,0V161.4L73,161.4z"
	/>
<path class="st2" d="M165.5,0H78v55h65.4c37.9,0,66,8,66,53c0,45-28,53-66,53H78v54h87.5C239,215,282,181.7,282,107.5
	C282,33.3,239,0,165.5,0z"/>
</svg>
