<svg style="display:none"><symbol viewBox="0 0 12 7" id="svg-arrow"><title>arrow</title> <path d="M6.6,6.7l5.1-5.2c0.3-0.3,0.3-0.9,0-1.3c-0.3-0.3-0.9-0.3-1.2,0L6,4.9L1.5,0.3c-0.3-0.3-0.9-0.3-1.2,0
	c-0.3,0.3-0.3,0.9,0,1.3l5.1,5.2C5.5,6.9,5.8,7,6,7C6.2,7,6.5,6.9,6.6,6.7z"/> </symbol><symbol viewBox="0 0 16 15.8" id="svg-email"><title>email</title> <g> <polygon points="8,0 0,6.8 0,15.3 5.5,10.5 0.7,7.2 8,1.3 15.3,7.2 10.5,10.5 16,15.3 16,6.8 	"/> <polygon points="6.6,10.8 0.9,15.8 15.1,15.8 9.4,10.8 	"/> </g> </symbol><symbol viewBox="0 0 24 24" id="svg-facebook"><title>facebook</title><path d="M9 8h-3v4h3v12h5v-12h3.642l.358-4h-4v-1.667c0-.955.192-1.333 1.115-1.333h2.885v-5h-3.808c-3.596 0-5.192 1.583-5.192 4.615v3.385z"/></symbol><symbol viewBox="0 0 24 24" id="svg-instagram"><title>instagram</title><path d="M11.984 16.815c2.596 0 4.706-2.111 4.706-4.707 0-1.409-.623-2.674-1.606-3.538-.346-.303-.735-.556-1.158-.748-.593-.27-1.249-.421-1.941-.421s-1.349.151-1.941.421c-.424.194-.814.447-1.158.749-.985.864-1.608 2.129-1.608 3.538 0 2.595 2.112 4.706 4.706 4.706zm.016-8.184c1.921 0 3.479 1.557 3.479 3.478 0 1.921-1.558 3.479-3.479 3.479s-3.479-1.557-3.479-3.479c0-1.921 1.558-3.478 3.479-3.478zm5.223.369h6.777v10.278c0 2.608-2.114 4.722-4.722 4.722h-14.493c-2.608 0-4.785-2.114-4.785-4.722v-10.278h6.747c-.544.913-.872 1.969-.872 3.109 0 3.374 2.735 6.109 6.109 6.109s6.109-2.735 6.109-6.109c.001-1.14-.327-2.196-.87-3.109zm2.055-9h-12.278v5h-1v-5h-1v5h-1v-4.923c-.346.057-.682.143-1 .27v4.653h-1v-4.102c-1.202.857-2 2.246-2 3.824v3.278h7.473c1.167-1.282 2.798-2 4.511-2 1.722 0 3.351.725 4.511 2h7.505v-3.278c0-2.608-2.114-4.722-4.722-4.722zm2.722 5.265c0 .406-.333.735-.745.735h-2.511c-.411 0-.744-.329-.744-.735v-2.53c0-.406.333-.735.744-.735h2.511c.412 0 .745.329.745.735v2.53z"/></symbol><symbol viewBox="0 0 282 277" id="svg-postize-logo-letter"><title>postize-logo-letter</title> <style type="text/css"> .st0{fill:#0560D0;} .st1{fill:#3688ED;} .st2{fill:#0513D0;} </style> <path class="st0" d="M73,55.3V0H18.2C8.3,0,0,8.7,0,18.9V55h73V55.3z"/> <path class="st1" d="M73,161.4V62v-3H0v200.1c0,9.9,8.7,17.9,18.6,17.9h36.3c10.3,0,18.1-8.1,18.1-17.9v-43.8l0,0V161.4L73,161.4z"/> <path class="st2" d="M165.5,0H78v55h65.4c37.9,0,66,8,66,53c0,45-28,53-66,53H78v54h87.5C239,215,282,181.7,282,107.5
	C282,33.3,239,0,165.5,0z"/> </symbol><symbol viewBox="0 0 24 24" id="svg-quote"><title>quote</title><path d="M13 14.725c0-5.141 3.892-10.519 10-11.725l.984 2.126c-2.215.835-4.163 3.742-4.38 5.746 2.491.392 4.396 2.547 4.396 5.149 0 3.182-2.584 4.979-5.199 4.979-3.015 0-5.801-2.305-5.801-6.275zm-13 0c0-5.141 3.892-10.519 10-11.725l.984 2.126c-2.215.835-4.163 3.742-4.38 5.746 2.491.392 4.396 2.547 4.396 5.149 0 3.182-2.584 4.979-5.199 4.979-3.015 0-5.801-2.305-5.801-6.275z"/></symbol><symbol viewBox="0 0 16 16" id="svg-search"><title>search</title> <path d="M15.56 15.56c-0.587 0.587-1.538 0.587-2.125 0l-2.652-2.652c-1.090 0.699-2.379 1.116-3.771 1.116-3.872 0-7.012-3.139-7.012-7.012s3.14-7.012 7.012-7.012c3.873 0 7.012 3.139 7.012 7.012 0 1.391-0.417 2.68-1.116 3.771l2.652 2.652c0.587 0.587 0.587 1.538 0 2.125zM7.012 2.003c-2.766 0-5.009 2.242-5.009 5.009s2.243 5.009 5.009 5.009c2.766 0 5.009-2.242 5.009-5.009s-2.242-5.009-5.009-5.009z"/> </symbol><symbol viewBox="0 0 24 24" id="svg-twitter"><title>twitter</title><path d="M24 4.557c-.883.392-1.832.656-2.828.775 1.017-.609 1.798-1.574 2.165-2.724-.951.564-2.005.974-3.127 1.195-.897-.957-2.178-1.555-3.594-1.555-3.179 0-5.515 2.966-4.797 6.045-4.091-.205-7.719-2.165-10.148-5.144-1.29 2.213-.669 5.108 1.523 6.574-.806-.026-1.566-.247-2.229-.616-.054 2.281 1.581 4.415 3.949 4.89-.693.188-1.452.232-2.224.084.626 1.956 2.444 3.379 4.6 3.419-2.07 1.623-4.678 2.348-7.29 2.04 2.179 1.397 4.768 2.212 7.548 2.212 9.142 0 14.307-7.721 13.995-14.646.962-.695 1.797-1.562 2.457-2.549z"/></symbol><symbol viewBox="0 0 24 24" id="svg-youtube"><title>youtube</title><path d="M19.615 3.184c-3.604-.246-11.631-.245-15.23 0-3.897.266-4.356 2.62-4.385 8.816.029 6.185.484 8.549 4.385 8.816 3.6.245 11.626.246 15.23 0 3.897-.266 4.356-2.62 4.385-8.816-.029-6.185-.484-8.549-4.385-8.816zm-10.615 12.816v-8l8 3.993-8 4.007z"/></symbol></svg>